<svg width="644" height="69" viewBox="0 0 644 69" fill="none" xmlns="http://www.w3.org/2000/svg">
<path d="M9.46094 36.5156C9.78906 38.4844 10.5638 40.0339 11.7852 41.1641C13.0065 42.2943 14.6927 42.8594 16.8438 42.8594C18.9036 42.8594 20.526 42.3581 21.7109 41.3555C22.9141 40.3346 23.5156 38.931 23.5156 37.1445C23.5156 34.3008 21.8021 32.4141 18.375 31.4844L13.3164 30.0898C10.1081 29.2331 7.64714 27.9661 5.93359 26.2891C4.22005 24.5938 3.36328 22.3151 3.36328 19.4531C3.36328 17.1198 3.9375 15.0781 5.08594 13.3281C6.2526 11.5781 7.8112 10.2565 9.76172 9.36328C11.7122 8.47005 13.9089 8.02344 16.3516 8.02344C20.0339 8.02344 23.0234 9.1263 25.3203 11.332C27.6354 13.5195 28.8659 16.2812 29.0117 19.6172H22.3398C22.194 17.9401 21.6016 16.582 20.5625 15.543C19.5234 14.4857 18.1016 13.957 16.2969 13.957C14.4922 13.957 13.0794 14.3945 12.0586 15.2695C11.0378 16.1445 10.5273 17.3294 10.5273 18.8242C10.5273 20.2279 10.974 21.3034 11.8672 22.0508C12.7604 22.7799 14.1094 23.3997 15.9141 23.9102L20.7812 25.332C27.3438 27.1549 30.625 30.901 30.625 36.5703C30.625 38.9948 29.9688 41.1549 28.6562 43.0508C27.3438 44.9284 25.6302 46.3594 23.5156 47.3438C21.401 48.3099 19.1042 48.793 16.625 48.793C12.5599 48.793 9.30599 47.6901 6.86328 45.4844C4.42057 43.2604 2.97135 40.2708 2.51562 36.5156H9.46094ZM35.3434 48V20.0547H42.3981V48H35.3434ZM34.6598 11.1953C34.6598 10.0469 35.0609 9.07161 35.863 8.26953C36.6651 7.46745 37.6677 7.06641 38.8708 7.06641C40.0557 7.06641 41.0492 7.46745 41.8512 8.26953C42.6533 9.05339 43.0544 10.0286 43.0544 11.1953C43.0544 12.3984 42.6533 13.3919 41.8512 14.1758C41.0674 14.9596 40.0739 15.3516 38.8708 15.3516C37.6677 15.3516 36.6651 14.9596 35.863 14.1758C35.0609 13.3919 34.6598 12.3984 34.6598 11.1953ZM55.7298 48H48.6752V20.0547H55.5111V24.8125C56.1673 23.1354 57.2976 21.8138 58.9017 20.8477C60.5059 19.8633 62.4017 19.3711 64.5892 19.3711C68.8548 19.3711 71.8262 21.1849 73.5033 24.8125C75.7455 21.1849 79.1179 19.3711 83.6205 19.3711C86.9017 19.3711 89.4173 20.4557 91.1673 22.625C92.9356 24.7943 93.8197 27.6745 93.8197 31.2656V48H86.765V32.4414C86.765 27.8477 84.8601 25.5508 81.0502 25.5508C79.1543 25.5508 77.6322 26.1615 76.4837 27.3828C75.3535 28.5859 74.7884 30.1536 74.7884 32.0859V48H67.7337V32.4414C67.7337 27.8477 65.8288 25.5508 62.0189 25.5508C60.1048 25.5508 58.5736 26.1888 57.4252 27.4648C56.2949 28.7227 55.7298 30.3633 55.7298 32.3867V48ZM106.659 59.7031H99.6045V20.0547H106.386V24.8672C107.297 23.2995 108.646 21.9961 110.433 20.957C112.219 19.8997 114.27 19.3711 116.585 19.3711C119.283 19.3711 121.717 20.0365 123.886 21.3672C126.055 22.6797 127.732 24.457 128.917 26.6992C130.102 28.9232 130.694 31.375 130.694 34.0547C130.694 36.7344 130.102 39.1862 128.917 41.4102C127.732 43.6341 126.055 45.4023 123.886 46.7148C121.717 48.0273 119.283 48.6836 116.585 48.6836C114.215 48.6836 112.146 48.1732 110.378 47.1523C108.628 46.1133 107.388 44.7917 106.659 43.1875V59.7031ZM121.261 40.3164C122.847 38.6211 123.64 36.5339 123.64 34.0547C123.64 31.5755 122.847 29.4792 121.261 27.7656C119.693 26.0521 117.67 25.1953 115.19 25.1953C112.802 25.1953 110.779 26.0156 109.12 27.6562C107.48 29.2969 106.659 31.4297 106.659 34.0547C106.659 36.6797 107.48 38.8034 109.12 40.4258C110.779 42.0482 112.802 42.8594 115.19 42.8594C117.67 42.8594 119.693 42.0117 121.261 40.3164ZM135.003 48V7.12109H142.057V48H135.003ZM153.311 36.4062C153.53 38.5938 154.332 40.3164 155.717 41.5742C157.103 42.832 159.008 43.4609 161.432 43.4609C163.109 43.4609 164.586 43.1419 165.862 42.5039C167.138 41.8477 168.122 40.9544 168.815 39.8242H175.377C174.357 42.3945 172.588 44.5182 170.073 46.1953C167.575 47.8542 164.695 48.6836 161.432 48.6836C156.765 48.6836 153.083 47.3073 150.385 44.5547C147.705 41.8021 146.366 38.2839 146.366 34C146.366 29.7708 147.742 26.2799 150.495 23.5273C153.247 20.7565 156.774 19.3711 161.077 19.3711C165.415 19.3711 168.942 20.7474 171.659 23.5C174.393 26.2526 175.76 29.7891 175.76 34.1094V36.4062H153.311ZM161.213 24.4297C159.008 24.4297 157.203 25.0859 155.799 26.3984C154.414 27.6927 153.566 29.4792 153.256 31.7578H169.034C168.815 29.5521 168.013 27.7839 166.627 26.4531C165.242 25.1042 163.437 24.4297 161.213 24.4297ZM195.916 39.6602C196.317 42.3763 198.03 43.7344 201.056 43.7344C202.424 43.7344 203.526 43.4154 204.365 42.7773C205.222 42.1393 205.65 41.2643 205.65 40.1523C205.65 39.2773 205.413 38.5938 204.939 38.1016C204.465 37.5911 203.7 37.1719 202.642 36.8438L198.486 35.7227C195.97 35.0482 194.093 34.082 192.853 32.8242C191.614 31.5664 190.994 29.8529 190.994 27.6836C190.994 25.1862 191.924 23.181 193.783 21.668C195.661 20.1367 198.03 19.3711 200.892 19.3711C203.809 19.3711 206.106 20.1276 207.783 21.6406C209.478 23.1536 210.49 25.1862 210.818 27.7383H204.803C204.711 26.7721 204.347 25.9609 203.709 25.3047C203.089 24.6484 202.205 24.3203 201.056 24.3203C199.963 24.3203 199.079 24.5938 198.404 25.1406C197.748 25.6693 197.42 26.3984 197.42 27.3281C197.42 28.1484 197.648 28.7682 198.103 29.1875C198.577 29.5885 199.361 29.9622 200.455 30.3086L205.431 31.7031C209.879 32.9427 212.103 35.5586 212.103 39.5508C212.103 41.3372 211.575 42.9414 210.517 44.3633C209.478 45.7669 208.12 46.8424 206.443 47.5898C204.784 48.319 203.007 48.6836 201.111 48.6836C198.03 48.6836 195.478 47.9362 193.455 46.4414C191.45 44.9284 190.274 42.668 189.928 39.6602H195.916ZM217.806 11.7148H224.861V20.0547H232.08V25.8789H224.861V38.5938C224.861 40.0521 225.162 41.1185 225.763 41.793C226.383 42.4674 227.367 42.8047 228.716 42.8047C229.555 42.8047 230.585 42.6315 231.806 42.2852V47.9453C231.35 48.1458 230.639 48.319 229.673 48.4648C228.707 48.6107 227.777 48.6836 226.884 48.6836C223.694 48.6836 221.379 47.7904 219.939 46.0039C218.517 44.2174 217.806 41.638 217.806 38.2656V25.8789H212.611V20.0547H217.806V11.7148ZM241.036 36.4062C241.255 38.5938 242.057 40.3164 243.443 41.5742C244.828 42.832 246.733 43.4609 249.157 43.4609C250.834 43.4609 252.311 43.1419 253.587 42.5039C254.863 41.8477 255.847 40.9544 256.54 39.8242H263.103C262.082 42.3945 260.314 44.5182 257.798 46.1953C255.301 47.8542 252.42 48.6836 249.157 48.6836C244.491 48.6836 240.808 47.3073 238.11 44.5547C235.431 41.8021 234.091 38.2839 234.091 34C234.091 29.7708 235.467 26.2799 238.22 23.5273C240.972 20.7565 244.5 19.3711 248.802 19.3711C253.14 19.3711 256.668 20.7474 259.384 23.5C262.118 26.2526 263.485 29.7891 263.485 34.1094V36.4062H241.036ZM248.939 24.4297C246.733 24.4297 244.928 25.0859 243.525 26.3984C242.139 27.6927 241.291 29.4792 240.982 31.7578H256.759C256.54 29.5521 255.738 27.7839 254.353 26.4531C252.967 25.1042 251.163 24.4297 248.939 24.4297ZM274.876 59.7031H267.821V20.0547H274.602V24.8672C275.514 23.2995 276.863 21.9961 278.649 20.957C280.436 19.8997 282.486 19.3711 284.802 19.3711C287.499 19.3711 289.933 20.0365 292.102 21.3672C294.272 22.6797 295.949 24.457 297.134 26.6992C298.319 28.9232 298.911 31.375 298.911 34.0547C298.911 36.7344 298.319 39.1862 297.134 41.4102C295.949 43.6341 294.272 45.4023 292.102 46.7148C289.933 48.0273 287.499 48.6836 284.802 48.6836C282.432 48.6836 280.363 48.1732 278.595 47.1523C276.845 46.1133 275.605 44.7917 274.876 43.1875V59.7031ZM289.477 40.3164C291.063 38.6211 291.856 36.5339 291.856 34.0547C291.856 31.5755 291.063 29.4792 289.477 27.7656C287.91 26.0521 285.886 25.1953 283.407 25.1953C281.019 25.1953 278.996 26.0156 277.337 27.6562C275.696 29.2969 274.876 31.4297 274.876 34.0547C274.876 36.6797 275.696 38.8034 277.337 40.4258C278.996 42.0482 281.019 42.8594 283.407 42.8594C285.886 42.8594 287.91 42.0117 289.477 40.3164ZM307.266 39.6602C307.667 42.3763 309.381 43.7344 312.407 43.7344C313.774 43.7344 314.877 43.4154 315.715 42.7773C316.572 42.1393 317 41.2643 317 40.1523C317 39.2773 316.763 38.5938 316.29 38.1016C315.816 37.5911 315.05 37.1719 313.993 36.8438L309.836 35.7227C307.321 35.0482 305.443 34.082 304.204 32.8242C302.964 31.5664 302.344 29.8529 302.344 27.6836C302.344 25.1862 303.274 23.181 305.133 21.668C307.011 20.1367 309.381 19.3711 312.243 19.3711C315.159 19.3711 317.456 20.1276 319.133 21.6406C320.829 23.1536 321.84 25.1862 322.168 27.7383H316.153C316.062 26.7721 315.697 25.9609 315.059 25.3047C314.439 24.6484 313.555 24.3203 312.407 24.3203C311.313 24.3203 310.429 24.5938 309.754 25.1406C309.098 25.6693 308.77 26.3984 308.77 27.3281C308.77 28.1484 308.998 28.7682 309.454 29.1875C309.928 29.5885 310.711 29.9622 311.805 30.3086L316.782 31.7031C321.23 32.9427 323.454 35.5586 323.454 39.5508C323.454 41.3372 322.925 42.9414 321.868 44.3633C320.829 45.7669 319.471 46.8424 317.793 47.5898C316.135 48.319 314.357 48.6836 312.461 48.6836C309.381 48.6836 306.829 47.9362 304.805 46.4414C302.8 44.9284 301.624 42.668 301.278 39.6602H307.266ZM341.258 11.7148H348.312V20.0547H355.531V25.8789H348.312V38.5938C348.312 40.0521 348.613 41.1185 349.215 41.793C349.834 42.4674 350.819 42.8047 352.168 42.8047C353.006 42.8047 354.036 42.6315 355.258 42.2852V47.9453C354.802 48.1458 354.091 48.319 353.125 48.4648C352.159 48.6107 351.229 48.6836 350.336 48.6836C347.146 48.6836 344.831 47.7904 343.39 46.0039C341.969 44.2174 341.258 41.638 341.258 38.2656V25.8789H336.062V20.0547H341.258V11.7148ZM381.085 46.5781C378.716 47.9818 375.981 48.6836 372.882 48.6836C369.783 48.6836 367.049 47.9818 364.679 46.5781C362.309 45.1745 360.523 43.3789 359.32 41.1914C358.135 38.9857 357.543 36.6068 357.543 34.0547C357.543 32.1406 357.898 30.3086 358.609 28.5586C359.32 26.7904 360.313 25.2227 361.589 23.8555C362.865 22.4883 364.479 21.4036 366.429 20.6016C368.398 19.7812 370.549 19.3711 372.882 19.3711C375.216 19.3711 377.358 19.7812 379.308 20.6016C381.277 21.4036 382.899 22.4883 384.175 23.8555C385.451 25.2227 386.445 26.7904 387.156 28.5586C387.867 30.3086 388.222 32.1406 388.222 34.0547C388.222 36.6068 387.621 38.9857 386.418 41.1914C385.233 43.3789 383.455 45.1745 381.085 46.5781ZM377.449 26.5352C376.154 25.6966 374.632 25.2773 372.882 25.2773C371.132 25.2773 369.601 25.6966 368.289 26.5352C366.994 27.3737 366.028 28.4492 365.39 29.7617C364.752 31.0742 364.433 32.5052 364.433 34.0547C364.433 36.4609 365.19 38.5208 366.703 40.2344C368.216 41.9479 370.276 42.8047 372.882 42.8047C375.489 42.8047 377.549 41.9479 379.062 40.2344C380.575 38.5208 381.332 36.4609 381.332 34.0547C381.332 32.5052 381.013 31.0742 380.375 29.7617C379.737 28.4492 378.761 27.3737 377.449 26.5352ZM408.35 39.6602C408.752 42.3763 410.465 43.7344 413.491 43.7344C414.858 43.7344 415.961 43.4154 416.8 42.7773C417.656 42.1393 418.085 41.2643 418.085 40.1523C418.085 39.2773 417.848 38.5938 417.374 38.1016C416.9 37.5911 416.134 37.1719 415.077 36.8438L410.921 35.7227C408.405 35.0482 406.528 34.082 405.288 32.8242C404.048 31.5664 403.429 29.8529 403.429 27.6836C403.429 25.1862 404.358 23.181 406.218 21.668C408.095 20.1367 410.465 19.3711 413.327 19.3711C416.244 19.3711 418.541 20.1276 420.218 21.6406C421.913 23.1536 422.925 25.1862 423.253 27.7383H417.237C417.146 26.7721 416.781 25.9609 416.143 25.3047C415.524 24.6484 414.64 24.3203 413.491 24.3203C412.397 24.3203 411.513 24.5938 410.839 25.1406C410.182 25.6693 409.854 26.3984 409.854 27.3281C409.854 28.1484 410.082 28.7682 410.538 29.1875C411.012 29.5885 411.796 29.9622 412.89 30.3086L417.866 31.7031C422.314 32.9427 424.538 35.5586 424.538 39.5508C424.538 41.3372 424.009 42.9414 422.952 44.3633C421.913 45.7669 420.555 46.8424 418.878 47.5898C417.219 48.319 415.442 48.6836 413.546 48.6836C410.465 48.6836 407.913 47.9362 405.89 46.4414C403.884 44.9284 402.709 42.668 402.362 39.6602H408.35ZM430.241 11.7148H437.295V20.0547H444.514V25.8789H437.295V38.5938C437.295 40.0521 437.596 41.1185 438.198 41.793C438.818 42.4674 439.802 42.8047 441.151 42.8047C441.989 42.8047 443.019 42.6315 444.241 42.2852V47.9453C443.785 48.1458 443.074 48.319 442.108 48.4648C441.142 48.6107 440.212 48.6836 439.319 48.6836C436.129 48.6836 433.814 47.7904 432.374 46.0039C430.952 44.2174 430.241 41.638 430.241 38.2656V25.8789H425.045V20.0547H430.241V11.7148ZM477.588 20.0547V48H470.834V43.1875C469.941 44.7552 468.592 46.0677 466.787 47.125C464.983 48.1641 462.932 48.6836 460.635 48.6836C457.937 48.6836 455.503 48.0273 453.334 46.7148C451.165 45.4023 449.488 43.6341 448.303 41.4102C447.118 39.1862 446.526 36.7344 446.526 34.0547C446.526 31.375 447.118 28.9232 448.303 26.6992C449.488 24.457 451.165 22.6797 453.334 21.3672C455.503 20.0365 457.937 19.3711 460.635 19.3711C463.005 19.3711 465.092 19.8997 466.897 20.957C468.72 21.9961 469.996 23.2995 470.725 24.8672V20.0547H477.588ZM455.932 27.7656C454.364 29.4792 453.58 31.5755 453.58 34.0547C453.58 36.5339 454.355 38.6211 455.905 40.3164C457.472 42.0117 459.496 42.8594 461.975 42.8594C464.399 42.8594 466.432 42.0482 468.073 40.4258C469.713 38.8034 470.533 36.6797 470.533 34.0547C470.533 31.4297 469.704 29.2969 468.045 27.6562C466.405 26.0156 464.381 25.1953 461.975 25.1953C459.514 25.1953 457.5 26.0521 455.932 27.7656ZM500.517 26.6172H498.986C496.197 26.6172 494.119 27.3737 492.752 28.8867C491.385 30.3997 490.701 32.5872 490.701 35.4492V48H483.646V20.0547H490.482V25.9883C490.993 23.8555 492.159 22.2604 493.982 21.2031C495.805 20.1458 497.984 19.6172 500.517 19.6172V26.6172ZM505.646 11.7148H512.701V20.0547H519.92V25.8789H512.701V38.5938C512.701 40.0521 513.002 41.1185 513.603 41.793C514.223 42.4674 515.207 42.8047 516.556 42.8047C517.395 42.8047 518.425 42.6315 519.646 42.2852V47.9453C519.19 48.1458 518.479 48.319 517.513 48.4648C516.547 48.6107 515.617 48.6836 514.724 48.6836C511.534 48.6836 509.219 47.7904 507.779 46.0039C506.357 44.2174 505.646 41.638 505.646 38.2656V25.8789H500.451V20.0547H505.646V11.7148ZM564.602 39.332L569.989 20.0547H576.825L567.856 48H562.142L554.431 28.1211L546.692 48H540.977L532.009 20.0547H538.845L544.231 39.332L551.669 20.0547H557.165L564.602 39.332ZM579.712 48V20.0547H586.766V48H579.712ZM579.028 11.1953C579.028 10.0469 579.429 9.07161 580.231 8.26953C581.033 7.46745 582.036 7.06641 583.239 7.06641C584.424 7.06641 585.417 7.46745 586.219 8.26953C587.021 9.05339 587.422 10.0286 587.422 11.1953C587.422 12.3984 587.021 13.3919 586.219 14.1758C585.436 14.9596 584.442 15.3516 583.239 15.3516C582.036 15.3516 581.033 14.9596 580.231 14.1758C579.429 13.3919 579.028 12.3984 579.028 11.1953ZM595.121 11.7148H602.176V20.0547H609.395V25.8789H602.176V38.5938C602.176 40.0521 602.477 41.1185 603.078 41.793C603.698 42.4674 604.683 42.8047 606.032 42.8047C606.87 42.8047 607.9 42.6315 609.121 42.2852V47.9453C608.666 48.1458 607.955 48.319 606.989 48.4648C606.022 48.6107 605.093 48.6836 604.2 48.6836C601.009 48.6836 598.694 47.7904 597.254 46.0039C595.832 44.2174 595.121 41.638 595.121 38.2656V25.8789H589.926V20.0547H595.121V11.7148ZM620.184 48H613.129V7.12109H620.184V24.5938C620.931 22.9167 622.089 21.6315 623.656 20.7383C625.224 19.8268 627.092 19.3711 629.262 19.3711C632.561 19.3711 635.132 20.4648 636.973 22.6523C638.814 24.8398 639.734 27.7109 639.734 31.2656V48H632.68V32.4414C632.68 30.3451 632.188 28.6771 631.203 27.4375C630.219 26.1797 628.715 25.5508 626.691 25.5508C624.777 25.5508 623.21 26.1797 621.988 27.4375C620.785 28.6953 620.184 30.3451 620.184 32.3867V48Z" fill="#003049"/>
<path d="M405.997 64.2828C424.791 56.5435 474.987 44.8131 525.421 59.805" stroke="#003049" stroke-width="4" stroke-linecap="round"/>
</svg>
