<svg width="472" height="67" viewBox="0 0 472 67" fill="none" xmlns="http://www.w3.org/2000/svg">
<path d="M41.1523 37.0898L49 8.78906H56.2734L44.2422 48H38.4727L28.6289 18.3867L18.7578 48H12.9883L0.957031 8.78906H8.23047L16.0781 37.0898L25.7578 8.78906H31.4727L41.1523 37.0898ZM66.488 48H59.4333V7.12109H66.488V24.5938C67.2354 22.9167 68.3929 21.6315 69.9606 20.7383C71.5283 19.8268 73.3968 19.3711 75.5661 19.3711C78.8656 19.3711 81.4359 20.4648 83.277 22.6523C85.1182 24.8398 86.0387 27.7109 86.0387 31.2656V48H78.9841V32.4414C78.9841 30.3451 78.4919 28.6771 77.5075 27.4375C76.5231 26.1797 75.0192 25.5508 72.9958 25.5508C71.0817 25.5508 69.514 26.1797 68.2927 27.4375C67.0895 28.6953 66.488 30.3451 66.488 32.3867V48ZM121.163 20.0547V48H114.41V43.1875C113.516 44.7552 112.167 46.0677 110.363 47.125C108.558 48.1641 106.507 48.6836 104.21 48.6836C101.512 48.6836 99.0788 48.0273 96.9095 46.7148C94.7403 45.4023 93.0632 43.6341 91.8783 41.4102C90.6934 39.1862 90.1009 36.7344 90.1009 34.0547C90.1009 31.375 90.6934 28.9232 91.8783 26.6992C93.0632 24.457 94.7403 22.6797 96.9095 21.3672C99.0788 20.0365 101.512 19.3711 104.21 19.3711C106.58 19.3711 108.667 19.8997 110.472 20.957C112.295 21.9961 113.571 23.2995 114.3 24.8672V20.0547H121.163ZM99.5072 27.7656C97.9395 29.4792 97.1556 31.5755 97.1556 34.0547C97.1556 36.5339 97.9304 38.6211 99.4798 40.3164C101.048 42.0117 103.071 42.8594 105.55 42.8594C107.975 42.8594 110.007 42.0482 111.648 40.4258C113.288 38.8034 114.109 36.6797 114.109 34.0547C114.109 31.4297 113.279 29.2969 111.62 27.6562C109.98 26.0156 107.956 25.1953 105.55 25.1953C103.089 25.1953 101.075 26.0521 99.5072 27.7656ZM129.3 11.7148H136.355V20.0547H143.573V25.8789H136.355V38.5938C136.355 40.0521 136.655 41.1185 137.257 41.793C137.877 42.4674 138.861 42.8047 140.21 42.8047C141.049 42.8047 142.078 42.6315 143.3 42.2852V47.9453C142.844 48.1458 142.133 48.319 141.167 48.4648C140.201 48.6107 139.271 48.6836 138.378 48.6836C135.188 48.6836 132.873 47.7904 131.433 46.0039C130.011 44.2174 129.3 41.638 129.3 38.2656V25.8789H124.105V20.0547H129.3V11.7148ZM177.729 20.0547H185.084L173.709 47.7266L169.061 59.7031H161.733L166.819 46.9336L155.772 20.0547H163.073L170.455 39.9883L177.729 20.0547ZM208.752 46.5781C206.382 47.9818 203.648 48.6836 200.549 48.6836C197.45 48.6836 194.716 47.9818 192.346 46.5781C189.976 45.1745 188.19 43.3789 186.986 41.1914C185.802 38.9857 185.209 36.6068 185.209 34.0547C185.209 32.1406 185.565 30.3086 186.275 28.5586C186.986 26.7904 187.98 25.2227 189.256 23.8555C190.532 22.4883 192.145 21.4036 194.096 20.6016C196.065 19.7812 198.216 19.3711 200.549 19.3711C202.882 19.3711 205.024 19.7812 206.975 20.6016C208.943 21.4036 210.566 22.4883 211.842 23.8555C213.118 25.2227 214.111 26.7904 214.822 28.5586C215.533 30.3086 215.889 32.1406 215.889 34.0547C215.889 36.6068 215.287 38.9857 214.084 41.1914C212.899 43.3789 211.122 45.1745 208.752 46.5781ZM205.115 26.5352C203.821 25.6966 202.299 25.2773 200.549 25.2773C198.799 25.2773 197.268 25.6966 195.955 26.5352C194.661 27.3737 193.695 28.4492 193.057 29.7617C192.419 31.0742 192.1 32.5052 192.1 34.0547C192.1 36.4609 192.856 38.5208 194.369 40.2344C195.882 41.9479 197.942 42.8047 200.549 42.8047C203.156 42.8047 205.216 41.9479 206.729 40.2344C208.242 38.5208 208.998 36.4609 208.998 34.0547C208.998 32.5052 208.679 31.0742 208.041 29.7617C207.403 28.4492 206.428 27.3737 205.115 26.5352ZM239.256 20.0547H246.31V48H239.529V43.2969C238.818 44.9375 237.642 46.25 236.002 47.2344C234.361 48.2005 232.456 48.6836 230.287 48.6836C227.006 48.6836 224.454 47.6081 222.631 45.457C220.826 43.2878 219.924 40.4167 219.924 36.8438V20.0547H226.978V35.7227C226.978 40.3164 228.938 42.6133 232.857 42.6133C234.844 42.6133 236.403 41.9935 237.533 40.7539C238.681 39.4961 239.256 37.8464 239.256 35.8047V20.0547ZM293.263 39.332L298.65 20.0547H305.485L296.517 48H290.802L283.091 28.1211L275.353 48H269.638L260.669 20.0547H267.505L272.892 39.332L280.329 20.0547H285.825L293.263 39.332ZM308.372 48V20.0547H315.427V48H308.372ZM307.688 11.1953C307.688 10.0469 308.089 9.07161 308.891 8.26953C309.694 7.46745 310.696 7.06641 311.899 7.06641C313.084 7.06641 314.078 7.46745 314.88 8.26953C315.682 9.05339 316.083 10.0286 316.083 11.1953C316.083 12.3984 315.682 13.3919 314.88 14.1758C314.096 14.9596 313.102 15.3516 311.899 15.3516C310.696 15.3516 309.694 14.9596 308.891 14.1758C308.089 13.3919 307.688 12.3984 307.688 11.1953ZM321.704 48V7.12109H328.758V48H321.704ZM334.789 48V7.12109H341.844V48H334.789ZM371.761 19.3711C374.113 19.3711 376.173 19.8997 377.941 20.957C379.727 21.9961 380.967 23.3359 381.66 24.9766V20.0547H388.605V47.6172C388.605 51.2083 387.147 54.2253 384.23 56.668C381.332 59.1107 377.713 60.332 373.375 60.332C369.674 60.332 366.511 59.5208 363.886 57.8984C361.279 56.276 359.438 53.888 358.363 50.7344H365.363C366.785 53.5052 369.437 54.8906 373.32 54.8906C375.817 54.8906 377.813 54.2526 379.308 52.9766C380.803 51.7005 381.55 49.9141 381.55 47.6172V42.1758C380.694 43.6706 379.399 44.901 377.668 45.8672C375.954 46.8333 373.985 47.3164 371.761 47.3164C369.063 47.3164 366.648 46.6966 364.515 45.457C362.401 44.2174 360.769 42.5404 359.621 40.4258C358.49 38.3112 357.925 35.9596 357.925 33.3711C357.925 30.7826 358.49 28.431 359.621 26.3164C360.769 24.1836 362.401 22.4974 364.515 21.2578C366.648 20 369.063 19.3711 371.761 19.3711ZM373.101 41.4922C375.471 41.4922 377.467 40.7357 379.089 39.2227C380.73 37.7096 381.55 35.7591 381.55 33.3711C381.55 30.9648 380.73 29.0052 379.089 27.4922C377.467 25.9609 375.471 25.1953 373.101 25.1953C370.658 25.1953 368.681 25.9701 367.168 27.5195C365.673 29.0508 364.925 31.0013 364.925 33.3711C364.925 35.7227 365.682 37.6641 367.195 39.1953C368.708 40.7266 370.677 41.4922 373.101 41.4922ZM399.886 36.4062C400.105 38.5938 400.907 40.3164 402.292 41.5742C403.678 42.832 405.583 43.4609 408.007 43.4609C409.684 43.4609 411.161 43.1419 412.437 42.5039C413.713 41.8477 414.697 40.9544 415.39 39.8242H421.952C420.931 42.3945 419.163 44.5182 416.648 46.1953C414.15 47.8542 411.27 48.6836 408.007 48.6836C403.34 48.6836 399.658 47.3073 396.96 44.5547C394.28 41.8021 392.941 38.2839 392.941 34C392.941 29.7708 394.317 26.2799 397.07 23.5273C399.822 20.7565 403.349 19.3711 407.652 19.3711C411.99 19.3711 415.517 20.7474 418.234 23.5C420.968 26.2526 422.335 29.7891 422.335 34.1094V36.4062H399.886ZM407.788 24.4297C405.583 24.4297 403.778 25.0859 402.374 26.3984C400.989 27.6927 400.141 29.4792 399.831 31.7578H415.609C415.39 29.5521 414.588 27.7839 413.202 26.4531C411.817 25.1042 410.012 24.4297 407.788 24.4297ZM428.475 11.7148H435.53V20.0547H442.749V25.8789H435.53V38.5938C435.53 40.0521 435.831 41.1185 436.432 41.793C437.052 42.4674 438.037 42.8047 439.386 42.8047C440.224 42.8047 441.254 42.6315 442.475 42.2852V47.9453C442.02 48.1458 441.309 48.319 440.343 48.4648C439.377 48.6107 438.447 48.6836 437.554 48.6836C434.363 48.6836 432.048 47.7904 430.608 46.0039C429.186 44.2174 428.475 41.638 428.475 38.2656V25.8789H423.28V20.0547H428.475V11.7148ZM452.936 34.5469C452.936 32.5234 453.264 30.901 453.92 29.6797C454.595 28.4401 455.816 27.0091 457.585 25.3867C459.225 23.9466 460.374 22.7617 461.03 21.832C461.686 20.9023 462.014 19.8815 462.014 18.7695C462.014 17.4206 461.558 16.3177 460.647 15.4609C459.736 14.6042 458.542 14.1758 457.065 14.1758C455.443 14.1758 454.157 14.6771 453.21 15.6797C452.262 16.6823 451.779 18.1042 451.76 19.9453H444.87C444.943 16.1536 446.082 13.2188 448.288 11.1406C450.512 9.0625 453.456 8.02344 457.12 8.02344C460.565 8.02344 463.418 9.04427 465.678 11.0859C467.939 13.1094 469.069 15.6706 469.069 18.7695C469.069 19.6628 468.95 20.5195 468.713 21.3398C468.495 22.1602 468.249 22.862 467.975 23.4453C467.72 24.0104 467.292 24.6667 466.69 25.4141C466.107 26.1432 465.633 26.6992 465.268 27.082C464.922 27.4466 464.357 28.0208 463.573 28.8047C463.372 28.987 463.026 29.2969 462.534 29.7344C462.042 30.1719 461.713 30.4727 461.549 30.6367C461.385 30.8008 461.139 31.0742 460.811 31.457C460.501 31.8398 460.292 32.1771 460.182 32.4688C460.073 32.7604 459.963 33.1432 459.854 33.6172C459.763 34.0729 459.717 34.5742 459.717 35.1211V36.4609H452.936V34.5469ZM452.034 44.2539C452.034 43.0143 452.435 41.9844 453.237 41.1641C454.057 40.3438 455.114 39.9336 456.409 39.9336C457.703 39.9336 458.751 40.3438 459.553 41.1641C460.374 41.9844 460.784 43.0143 460.784 44.2539C460.784 45.4753 460.374 46.487 459.553 47.2891C458.751 48.0911 457.703 48.4922 456.409 48.4922C455.114 48.4922 454.057 48.0911 453.237 47.2891C452.435 46.487 452.034 45.4753 452.034 44.2539Z" fill="white"/>
<path d="M180 65C200.543 58.7263 261.504 48.0609 341 55.5894" stroke="#EBDA42" stroke-width="4" stroke-linecap="round"/>
</svg>
