<svg width="221" height="67" viewBox="0 0 221 67" fill="none" xmlns="http://www.w3.org/2000/svg">
<path d="M126.861 58.8103C137.028 54.8722 166.611 49.3495 203.606 58.7637" stroke="#EBDA42" stroke-width="4" stroke-linecap="round"/>
<path d="M41.1523 37.5098L49 9.20898H56.2734L44.2422 48.4199H38.4727L28.6289 18.8066L18.7578 48.4199H12.9883L0.957031 9.20898H8.23047L16.0781 37.5098L25.7578 9.20898H31.4727L41.1523 37.5098ZM66.488 48.4199H59.4333V7.54102H66.488V25.0137C67.2354 23.3366 68.3929 22.0514 69.9606 21.1582C71.5283 20.2467 73.3968 19.791 75.5661 19.791C78.8656 19.791 81.4359 20.8848 83.277 23.0723C85.1182 25.2598 86.0387 28.1309 86.0387 31.6855V48.4199H78.9841V32.8613C78.9841 30.765 78.4919 29.097 77.5075 27.8574C76.5231 26.5996 75.0192 25.9707 72.9958 25.9707C71.0817 25.9707 69.514 26.5996 68.2927 27.8574C67.0895 29.1152 66.488 30.765 66.488 32.8066V48.4199ZM110.089 20.4746H117.445L106.07 48.1465L101.421 60.123H94.0931L99.1791 47.3535L88.1322 20.4746H95.433L102.816 40.4082L110.089 20.4746ZM158.874 9.20898H166.175V32.9707C166.175 37.8379 164.598 41.7663 161.444 44.7559C158.29 47.7272 154.225 49.2129 149.249 49.2129C145.986 49.2129 143.078 48.5475 140.526 47.2168C137.974 45.8861 135.969 43.9902 134.51 41.5293C133.07 39.0501 132.35 36.1973 132.35 32.9707V9.20898H139.624V33.1348C139.624 36.1973 140.499 38.5762 142.249 40.2715C144.017 41.9668 146.35 42.8145 149.249 42.8145C152.147 42.8145 154.471 41.9668 156.221 40.2715C157.99 38.5762 158.874 36.1973 158.874 33.1348V9.20898ZM176.635 40.0801C177.036 42.7962 178.75 44.1543 181.776 44.1543C183.143 44.1543 184.246 43.8353 185.084 43.1973C185.941 42.5592 186.37 41.6842 186.37 40.5723C186.37 39.6973 186.133 39.0137 185.659 38.5215C185.185 38.0111 184.419 37.5918 183.362 37.2637L179.205 36.1426C176.69 35.4681 174.812 34.502 173.573 33.2441C172.333 31.9863 171.713 30.2728 171.713 28.1035C171.713 25.6061 172.643 23.6009 174.502 22.0879C176.38 20.5566 178.75 19.791 181.612 19.791C184.528 19.791 186.825 20.5475 188.502 22.0605C190.198 23.5736 191.209 25.6061 191.538 28.1582H185.522C185.431 27.1921 185.066 26.3809 184.428 25.7246C183.808 25.0684 182.924 24.7402 181.776 24.7402C180.682 24.7402 179.798 25.0137 179.123 25.5605C178.467 26.0892 178.139 26.8184 178.139 27.748C178.139 28.5684 178.367 29.1882 178.823 29.6074C179.297 30.0085 180.08 30.3822 181.174 30.7285L186.151 32.123C190.599 33.3626 192.823 35.9785 192.823 39.9707C192.823 41.7572 192.294 43.3613 191.237 44.7832C190.198 46.1868 188.84 47.2624 187.163 48.0098C185.504 48.7389 183.726 49.1035 181.83 49.1035C178.75 49.1035 176.198 48.3561 174.174 46.8613C172.169 45.3483 170.993 43.0879 170.647 40.0801H176.635ZM202.08 34.9668C202.08 32.9434 202.408 31.321 203.065 30.0996C203.739 28.86 204.96 27.429 206.729 25.8066C208.369 24.3665 209.518 23.1816 210.174 22.252C210.83 21.3223 211.158 20.3014 211.158 19.1895C211.158 17.8405 210.703 16.7376 209.791 15.8809C208.88 15.0241 207.686 14.5957 206.209 14.5957C204.587 14.5957 203.302 15.097 202.354 16.0996C201.406 17.1022 200.923 18.5241 200.904 20.3652H194.014C194.087 16.5736 195.226 13.6387 197.432 11.5605C199.656 9.48242 202.6 8.44336 206.264 8.44336C209.709 8.44336 212.562 9.46419 214.822 11.5059C217.083 13.5293 218.213 16.0905 218.213 19.1895C218.213 20.0827 218.094 20.9395 217.857 21.7598C217.639 22.5801 217.393 23.2819 217.119 23.8652C216.864 24.4303 216.436 25.0866 215.834 25.834C215.251 26.5632 214.777 27.1191 214.412 27.502C214.066 27.8665 213.501 28.4408 212.717 29.2246C212.516 29.4069 212.17 29.7168 211.678 30.1543C211.186 30.5918 210.857 30.8926 210.693 31.0566C210.529 31.2207 210.283 31.4941 209.955 31.877C209.645 32.2598 209.436 32.597 209.326 32.8887C209.217 33.1803 209.107 33.5632 208.998 34.0371C208.907 34.4928 208.861 34.9941 208.861 35.541V36.8809H202.08V34.9668ZM201.178 44.6738C201.178 43.4342 201.579 42.4043 202.381 41.584C203.201 40.7637 204.259 40.3535 205.553 40.3535C206.847 40.3535 207.895 40.7637 208.697 41.584C209.518 42.4043 209.928 43.4342 209.928 44.6738C209.928 45.8952 209.518 46.9069 208.697 47.709C207.895 48.5111 206.847 48.9121 205.553 48.9121C204.259 48.9121 203.201 48.5111 202.381 47.709C201.579 46.9069 201.178 45.8952 201.178 44.6738Z" fill="white"/>
</svg>
